<svg version="1.2" xmlns="http://www.w3.org/2000/svg" viewBox="0 0 321 161" width="321" height="161">
	<style>
		.s0 { fill: #7e2e31 } 
		.s1 { fill: #4f542f } 
	</style>
	<g id="&lt;Group&gt;" style="opacity: .1">
		<path id="Path 208" class="s0" d="m160.16 160.95v-160.46h3.16 156.87v160.46zm122.13-122.97l31.58 4.19c0-22.19-23.08-18.65-31.58-4.19zm-113.41-29.4l-0.08 14.44c21.15 7.63 57.24 26.97 65.61 8.14 2.06-4.63 0.52-21.42-5.82-22.58m-60 39.84c1.39 1.37 16.95-3.85 20.38-5.04 2.02-0.7 5.85-1.45 6.97-3.27l-27.35-8.36zm84.23-8.33c-3.48 3.24 16.92 18.78 20.63 20.2 14.53 5.53 25.84 0.46 40.43 0.62 0-3.68-0.02-4.36-0.02-7.73-2.08-5.95-52.01-8.99-61.04-13.09zm-84.22 24.99c1.79 1.9 37.07-12.97 39.99-18.73-13.84-1.6-26.29 5.56-39.91 6.33zm128.44 0.01c1.77 4.29 11.51 13.73 16.83 14.57v-13.55zm-128.44 22.9c24.52-6.8 47.2-17.78 61.05-39.56l-61.05 26.32zm113.7-18.78c6.36 6.44 21.76 23.48 31.56 29.87v-11.55c-1.47-1.7-23.24-19.39-24.62-19.97-1.65-0.68-7.57-1.93-6.94 1.65zm-113.7 54.2c4.2-1.98 21.4-14.21 24.57-16.29 4.02-2.64 9.32-2.65 13.2-5.69 8.67-6.77 24.96-35.21 27.47-46.77l-14.69 15.65c-6.77 6.8-18.35 10.53-24.31 17.62-5.78 6.87-5.27 14.97-9.33 19.95-4.92 6.04-16.91 3.96-16.91 15.53zm0-12.5c13.39-1.7 17.53-10.77 18.92-22.91l-18.72 6.45zm126.34-20.83c2.58 14.85 8.56 32.47 18.91 43.77 0-27.28-1.49-30.29-18.91-43.77zm-96.88 20.86c-1.24-1.15-28.58 17.61-29.46 19.06 0 6.71 0.01 5.93 0.01 14.27 3.43-2.19 31.08-31.8 29.45-33.33zm-25.26 41.64h9.49c2.69-1.06 19.48-19.05 22.8-22.19 2.93-2.77 8.37-3.85 10.74-7.1 4.36-6.03 5.63-21.56 5.37-29.04zm16.85 0c13.06 0 15.3-7.43 18.93-16.65zm14.74 0l23.17 0.03c-3.28-31.55 15.7-60.09 12.6-91.69l-14.28 26.47c1.62 24.63-6.83 45.81-21.49 65.19zm29.48 0l8.3-0.09c-1.19-7.08 4.93-14.76 5.43-20.52 0.46-5.19-6.33-10.75-5.34-16.87l-5.76 16.14zm29.51 0.02c3.82 0.17 4.4 1.04 4.19-3.1-0.55-11.2-7.3-25.3-8.4-37.57-1.61-17.98 6.14-40.46-10.54-53.1 3.31 16.5-5.91 35.31-4.07 50.85 1.77 14.95 16.43 27.95 18.82 42.92zm-16.87-0.01l12.63-0.01-7.37-14.52c-2.47 0.02-6.45 13.41-5.26 14.53zm16.84-68.76v32.31c0 1.78 8.25 35.02 9.32 36.44l7.51 0.02-7.35-50.02zm-4.19-25.01c5.46 13.68 14.96 25.96 19.52 40.06 5.42 16.76 5.43 36.57 8.86 53.7h9.5c-7.53-10.91 2.87-27.2 1.68-35.98-0.23-1.73-9.64-31.07-10.65-33.27-4.26-9.4-21.25-17.34-28.91-24.51zm42.39 93.49l12.33 0.28-10.55-27.07c-3.61 0.94-4.32 10.7-4.36 13.54-0.07 4.61 0.58 9.09 2.58 13.25zm6.19-143.74h-62.28c-4.32 2.09-0.39 18.72 1.53 20.6 1.24 1.23 21.34 6.53 23.81 6.47 10.32-0.29 29.24-19.99 36.94-27.07z"/>
		<path id="Path 209" class="s1" d="m160.16 160.87h-159.94v-160.39h159.94zm-8.43-54.76l-8.93 5.53c-8.05 4.99-13.8 12.91-16 22.07l-4.52 18.81h29.45zm-69.43 46.44c-4.38-13.86-26.57-11.35-38.7-16.9-32.34-14.77-9.5-76.54-25.51-103.89l-9.45-16.68v57.14c0 4.35 10.26 22.01 18 51.05 2.55 9.56 0.75 19.5 0.94 29.28zm23.14-49.98c-2.49 0.83-7.39 4.03-8.64 5.42-2.46 2.74-7.08 6.28-7.59 12.57-0.26 3.31 2.58 31.51 4.91 32.11l11.34-0.11c0.98-17.2-4.25-33.03-0.02-49.99zm14.75 49.99c-0.24-19.77 8.37-38.29 8.39-58.33-7.91 1.58-20 19.63-21.03 26.19-1.25 8.05 4.79 22.54 2.1 32.14zm-111.55-62.5v29.16l15.15 7.23zm39.98-16.64c-26.54-2.09-20.53 28.84-1.07 35.43 6.72 0.75-0.47-8.26-1.08-13.51-0.86-7.41 0.26-14.81 2.15-21.92zm69.44-16.67l-14.45 15.88c-2.79 4.74-2.05 10.8-5.63 15.25-5.32 6.61-11.34 5.24-8.32 20.89 11.38-17.59 33.08-28.15 28.4-52.02zm-61.92-0.44c-2.4 8.43-6.75 32.76-4.97 40.61 2.23 9.8 14.62 15.68 19.36 24.57l9.64 16.47c-2.4-15.82-1.36-37.23-5.09-52.21-2.12-8.53-18.94-29.44-18.94-29.44zm95.61 41.04v-46.86l-15.73 27.13-5.32 29.09zm-103.59-30.67c5.27-5.28 6.81-34.06-3.31-43.29-10.82 14.28-17.41 33.42-15.25 51.35 3.6-3.34 16.15-5.65 18.56-8.06zm63.58 37.94c1.22-9.15 12.37-11.36 16.6-17.95 3.15-4.92 3.9-12.52 6.88-18.18 8.28-15.76 16.51-21.29 16.51-47.17-25.55 13.4-21.23 40.31-30.47 60.43-3.93 8.56-19.93 15.31-9.52 22.87zm-39.97 31.25c-3.26-22.6-25.54-19.37-39.96-31.23 1.13 23.08 19.91 28.99 39.96 31.23zm80.06-127.72l-16.81-0.33-2.21 19.73c3.84 2.59 20.42-18.37 19.02-19.4zm-40.37-0.33c-5.54 10.1 3.79 37.71 9.78 42.62 4.58-0.04 8.9-38.08 7.4-42.62zm-27.05 80.15c10.51-0.55 9.42-11.56 12.96-17.37 10.92-17.95 9.51-49.28-4.31-62.78l-5.88 29.73c-1.84 9.29-2.77 18.74-2.77 28.22zm-10.54-16.68c-1.47-18.33 8.55-45.56 10.54-63.37h-5.14c-3.7 14.98-10.4 27.05-19.24 41.53zm-14.51-27.06c0.98-4.1 12.43-17.17 15.55-36.31h-7.62c-1.41 4.11-6.47 18.61-7.25 22.61-0.42 2.15-1.36 4.37-0.68 13.7zm1.95-36.31h-9.74c-3.95 10.55-1.52 16.75 3.41 23.79l3.21-7.79c1.7-4.13 2.7-8.51 2.95-12.97zm-14.83 0h-33.74l14.88 36.31c4.32-4.06 16.27-28.17 18.86-36.31zm-37.83 115.46v29.16l14.75 0.01c1.59-13.46-1.13-24.06-14.75-29.17z"/>
	</g>
</svg>