<svg version="1.2" xmlns="http://www.w3.org/2000/svg" viewBox="0 0 57 61" width="57" height="61">
	<style>
		.s0 { opacity: .4;fill: #ffffff } 
	</style>
	<g id="&lt;Group&gt;">
		<path id="&lt;Compound Path&gt;" fill-rule="evenodd" class="s0" d="m35.72 28.76l18.49-0.54c4.37 3.4 1.19 10.48-0.58 14.79-8.47 20.68-33.2 23.1-46.75 6.12-2.34-2.94-6.47-11.75-6.4-15.32 0.02-0.83 0.29-1.3 1.12-1.51l15.79-1.48c-1.42-14.28 17.53-17.49 18.33-2.06zm-31.19 6.81c8.17 25.1 41.5 27.19 46.74-1.69z"/>
		<path id="&lt;Path&gt;" class="s0" d="m30.17 1.1c2.08 3.31-3.49 6.02-5.93 3.91-1.44-3.41 4.47-6.22 5.93-3.91z"/>
		<path id="&lt;Path&gt;" class="s0" d="m4.28 18.04c6.19-2.07 5.3 6.5 0.72 5.23-2.1-0.58-2.73-4.55-0.72-5.23z"/>
		<path id="&lt;Path&gt;" class="s0" d="m40.24 6.53c3.9-1.09 5.13 4.83 1.1 5.17-3.37 0.27-4.03-4.36-1.1-5.17z"/>
		<path id="&lt;Path&gt;" class="s0" d="m13.16 8.06c3.9-1.09 5.13 4.84 1.1 5.17-3.37 0.28-4.03-4.35-1.1-5.17z"/>
		<path id="&lt;Path&gt;" class="s0" d="m45.91 18.01c1.01-1.41 4.68-0.15 4 2.29-0.73 2.63-5.83 0.28-4-2.29z"/>
	</g>
</svg>