<svg version="1.2" xmlns="http://www.w3.org/2000/svg" viewBox="0 0 60 58" width="60" height="58">
	<style>
		.s0 { fill: #ffffff } 
	</style>
	<g id="&lt;Group&gt;" style="opacity: .4">
		<path id="&lt;Path&gt;" class="s0" d="m58.74 55.64c-0.91 0.91-3.43 0.9-4.16-0.26-0.88-1.39-0.84-7.27-1.33-9.48-2.75-12.54-8.32-20.36-22.03-21.17-11.69-0.7-21.96 8.71-24 19.86-0.54 2.95 0.19 10.93-2.53 12.13-1.37 0.6-3.68-0.51-4.12-1.96-0.54-1.82 0.25-9.11 0.65-11.3 5.26-28.83 46.15-35.46 55.86-5.65 1.07 3.29 3.98 15.48 1.66 17.83z"/>
		<path id="&lt;Compound Path&gt;" fill-rule="evenodd" class="s0" d="m28.29 29.15c5.8-1.22 13.22 2.23 16.12 7.34 6.06 10.7-7.95 25.18-18.82 20.63-11.47-4.79-8.41-25.64 2.7-27.97zm-1.45 9.2c-5.25 5.02 1.94 17.8 9.55 10.46 7.14-6.87-3.45-16.3-9.55-10.46z"/>
		<path id="&lt;Path&gt;" class="s0" d="m30.12 0.53c8.78-1.69 7.94 11.12 0.35 11.24-7.16 0.11-6.41-10.07-0.35-11.24z"/>
	</g>
</svg>