<svg version="1.2" xmlns="http://www.w3.org/2000/svg" viewBox="0 0 56 58" width="56" height="58">
	<style>
		.s0 { opacity: .4;fill: #ffffff } 
	</style>
	<path id="&lt;Compound Path&gt;" fill-rule="evenodd" class="s0" d="m55.57 34.37c-4.89 29.43-49.95 31.78-54.94-1.24-1.28-8.47 3.7-5.57 8.73-5.63 1.76-0.02 3.93-1.16 5.96-0.65-2.68-3.65-6.77-8.19-4.21-12.94 1.7-0.28 6.84-2.66 12.21-5.15-1.55 0.09-3.08-0.59-3.94-2.47-2.15-4.72 4.31-8.36 7.62-4.82 1.87 1.99 1.32 4.2-0.16 5.66 5.6-2.57 10.68-4.79 11.55-4.32 2.84 1.51 2.82 8.43 2.45 11.21-0.63 4.68-3.7 8.45-6.19 12.21 1.59 1.17 14.85-1.27 17.78-1.3 4.49-0.05 3.67 6.28 3.14 9.44zm-19.05-25.6l-21.67 10.28c7.58 14.5 24.46 3.9 21.67-10.28zm13.72 23.08l-9.01 1.27-37.15-0.96c4.52 15.75 18.61 23.67 34.12 16.64 7.78-3.53 10.47-8.75 12.04-16.95z"/>
</svg>