<svg version="1.2" xmlns="http://www.w3.org/2000/svg" viewBox="0 0 39 40" width="39" height="40">
	<style>
		.s0 { fill: #006188 } 
	</style>
	<path id="&lt;Compound Path&gt;" fill-rule="evenodd" class="s0" d="m9.09 0.94c6.65-0.23 13.4 0.14 20.05-0.02 3.11 0.09 5.77 0.46 7.7 3.14 1.29 1.8 1.39 3.37 1.48 5.5 0.28 6.7-0.1 13.51 0.06 20.22-0.09 3.13-0.45 5.81-3.15 7.76-1.8 1.29-3.35 1.39-5.5 1.48-7.16 0.3-14.42-0.07-21.58 0-4.26-0.06-7.42-2.77-7.82-7.06-0.05-0.52-0.03-1.05-0.05-1.58-0.27-6.7 0.09-13.51-0.06-20.22 0.09-3.11 0.47-5.76 3.15-7.7 1.76-1.28 3.6-1.45 5.72-1.52zm-0.54 5.23c-4.35 0.21-3.92 6.94 0.53 6.52 4.07-0.38 3.71-6.73-0.53-6.52zm11.89 11.37v-2.26c-0.1-0.12-0.21-0.12-0.35-0.14-1.47-0.13-3.14 0.11-4.64 0-0.13-0.01-0.35 0.07-0.39 0.21v17.74l0.1 0.12h5.39l0.17-0.37c0.13-3.16-0.19-6.47-0.01-9.6 0.1-1.71 0.71-3.18 2.55-3.5 2.4-0.42 3.44 0.82 3.67 3.06l0.08 10.33 0.12 0.1 5.38-0.04 0.09-0.3c-0.11-3.54 0.14-7.16 0-10.69-0.14-3.54-1.14-6.72-5.06-7.36-2.13-0.35-4.15-0.1-5.82 1.34-0.47 0.41-0.83 0.94-1.28 1.36zm-14.35-2.38l-0.17 0.09-0.02 17.84 0.1 0.12 5.36 0.02c0.15-0.04 0.2-0.31 0.2-0.45l-0.01-17.38q-0.08-0.25-0.35-0.25z"/>
</svg>