<svg version="1.2" xmlns="http://www.w3.org/2000/svg" viewBox="0 0 275 104" width="275" height="104">
	<style>
		.s0 { fill: #ffffff } 
	</style>
	<g id="&lt;Group&gt;">
		<path id="&lt;Compound Path&gt;" fill-rule="evenodd" class="s0" d="m0.48 103.42v-51.45h51.32v51.45zm45.33-2.76l3.95 0.09-3.38-8.68c-1.16 0.3-1.39 3.43-1.4 4.34-0.02 1.48 0.19 2.91 0.83 4.25zm-13.59-29.98c1.75 4.39 4.79 8.32 6.25 12.84 1.74 5.38 1.74 11.73 2.85 17.22h3.04c-2.41-3.49 0.92-8.72 0.54-11.53-0.08-0.56-3.09-9.97-3.41-10.67-1.37-3.01-6.82-5.56-9.27-7.86zm1.34 8.02v10.36c0 0.57 2.65 11.23 2.99 11.68l2.41 0.01-2.36-16.04zm0.01 22.05c1.23 0.05 1.41 0.33 1.35-0.99-0.18-3.59-2.35-8.12-2.7-12.05-0.52-5.77 1.97-12.97-3.38-17.03 1.06 5.29-1.89 11.32-1.3 16.31 0.56 4.79 5.26 8.96 6.03 13.76zm-5.41 0l4.05-0.01-2.36-4.65c-0.79 0-2.07 4.3-1.69 4.66zm-4.05-0.01l2.66-0.03c-0.38-2.27 1.58-4.73 1.74-6.58 0.15-1.66-2.03-3.44-1.71-5.4l-1.85 5.17zm-9.45 0l7.43 0.01c-1.05-10.12 5.04-19.27 4.04-29.4l-4.58 8.49c0.52 7.9-2.19 14.69-6.89 20.9zm-10.13 0c1.43 0 1.23 0 3.05 0 0.86-0.34 6.24-6.11 7.31-7.11 0.94-0.89 2.68-1.24 3.44-2.28 1.4-1.93 1.81-6.91 1.73-9.31zm5.4 0c4.18 0 4.9-2.38 6.07-5.34zm2.7-13.35c-0.4-0.37-9.17 5.65-9.45 6.11 0 2.15 0 1.9 0 4.57 1.1-0.7 9.97-10.19 9.45-10.68zm31.06-6.69c0.83 4.76 2.74 10.41 6.06 14.03 0-8.74-0.47-9.71-6.06-14.03zm-40.51 10.69c1.35-0.64 6.86-4.56 7.88-5.23 1.29-0.84 2.99-0.85 4.23-1.82 2.78-2.17 8-11.29 8.81-15l-4.71 5.02c-2.17 2.18-5.88 3.38-7.8 5.65-1.85 2.2-1.69 4.8-2.99 6.4-1.57 1.93-5.42 1.27-5.42 4.98zm0-4.01c4.29-0.55 5.62-3.45 6.06-7.35l-6 2.07zm36.46-13.37c2.04 2.06 6.98 7.53 10.12 9.58 0-2.21 0-2.01 0-3.7-0.47-0.55-7.45-6.22-7.89-6.41-0.53-0.22-2.43-0.62-2.23 0.53zm-36.46 6.02c7.87-2.18 15.14-5.7 19.58-12.69l-19.58 8.44zm41.19-7.34c0.56 1.37 3.69 4.4 5.39 4.67v-4.34zm-41.18-0.01c0.57 0.61 11.88-4.16 12.82-6-4.43-0.52-8.43 1.78-12.8 2.02zm27.01-8.01c-1.11 1.04 5.43 6.02 6.62 6.47 4.66 1.78 8.28 0.15 12.96 0.21 0-1.19-0.01-1.4-0.01-2.49-0.66-1.9-16.67-2.88-19.57-4.19zm-27.01 2.67c0.45 0.44 5.44-1.24 6.54-1.62 0.65-0.22 1.87-0.46 2.23-1.05l-8.76-2.68zm0.09-12.77l-0.03 4.63c6.78 2.45 18.35 8.65 21.04 2.61 0.66-1.48 0.17-6.87-1.87-7.24zm36.37 9.43l10.13 1.34c0-7.11-7.4-5.98-10.13-1.34zm8.15-9.43h-19.97c-1.38 0.67-0.12 6 0.49 6.61 0.4 0.39 6.85 2.09 7.64 2.07 3.31-0.09 9.38-6.41 11.84-8.68z"/>
		<path id="&lt;Compound Path&gt;" fill-rule="evenodd" class="s0" d="m52.8 0.52v51.45h-51.32v-51.45zm-36.47 2.38c-4.53 0-8.05 0-10.83 0l4.78 11.65c1.38-1.3 5.21-9.04 6.05-11.65zm4.75 0c-1.87 0-1.54 0-3.12 0-1.27 3.39-0.49 5.38 1.09 7.63l1.03-2.49q0.83-2.01 0.95-4.17zm-0.62 11.65c0.31-1.31 3.98-5.51 4.98-11.65-1.53 0-1.05 0-2.44 0-0.45 1.32-2.08 5.97-2.33 7.26-0.13 0.69-0.43 1.4-0.21 4.39zm4.65 8.68c-0.47-5.88 2.74-14.61 3.38-20.33-0.95 0-0.81 0-1.65 0-1.18 4.81-3.33 8.68-6.17 13.33zm3.39 5.35c3.36-0.18 3.02-3.71 4.15-5.58 3.51-5.76 3.05-15.81-1.38-20.14l-1.89 9.54q-0.88 4.48-0.88 9.05zm8.67-25.71c-1.77 3.24 1.22 12.1 3.14 13.67 1.47-0.01 2.86-12.22 2.38-13.67-2.06 0-3.4 0-5.52 0zm12.96 0.1l-5.4-0.1-0.71 6.33c1.24 0.83 6.55-5.9 6.11-6.23zm-22.31 46.33c-1.4-4.45-8.52-3.64-12.42-5.42-10.37-4.74-3.04-24.56-8.18-33.33l-3.03-5.36v18.34c0 1.39 3.29 7.06 5.78 16.38 0.81 3.06 0.23 6.25 0.3 9.39zm9.44-15.38c0.39-2.93 3.97-3.64 5.32-5.76 1.02-1.57 1.26-4.01 2.21-5.83 2.66-5.05 5.3-6.83 5.3-15.13-8.2 4.3-6.81 12.93-9.78 19.39-1.26 2.74-6.39 4.91-3.05 7.33zm-20.4-12.17c1.69-1.69 2.19-10.93-1.06-13.89-3.47 4.58-5.58 10.72-4.89 16.48 1.15-1.08 5.18-1.82 5.95-2.59zm33.24 9.84v-15.04l-5.05 8.71-1.71 9.33zm-30.67-13.17c-0.77 2.71-2.16 10.51-1.59 13.03 0.71 3.14 4.69 5.03 6.21 7.88l3.09 5.29c-0.77-5.08-0.43-11.95-1.63-16.75-0.68-2.74-6.08-9.45-6.08-9.45zm19.87 0.14l-4.64 5.1c-0.89 1.52-0.65 3.46-1.8 4.89-1.71 2.12-3.64 1.68-2.67 6.7 3.65-5.64 10.61-9.03 9.11-16.69zm-22.28 5.35c-8.52-0.67-6.59 9.25-0.34 11.37 2.15 0.24-0.15-2.65-0.35-4.34-0.27-2.37 0.08-4.75 0.69-7.03zm-12.83 5.34v9.36l4.86 2.32zm35.79 20.05c-0.08-6.34 2.69-12.28 2.69-18.72-2.53 0.51-6.41 6.3-6.74 8.41-0.41 2.58 1.53 7.23 0.67 10.31zm-4.73-16.04c-0.8 0.27-2.38 1.29-2.78 1.74-0.79 0.88-2.27 2.01-2.43 4.03-0.09 1.07 0.83 10.11 1.57 10.3l3.64-0.03c0.31-5.52-1.36-10.6 0-16.04zm-10.81 10.68c-1.04-7.25-8.19-6.21-12.82-10.02 0.37 7.41 6.39 9.31 12.82 10.02zm25.66-9.54l-2.87 1.77c-2.58 1.6-4.43 4.14-5.13 7.08l-1.45 6.04h9.45zm-45.91 5.54v9.35l4.73 0.01c0.51-4.32-0.36-7.72-4.73-9.36z"/>
		<g id="&lt;Group&gt;">
			<path id="&lt;Compound Path&gt;" fill-rule="evenodd" class="s0" d="m66.47 34.78h-2.83v6.74h-3.23v-16.99h7.39c3.99 0 5.92 1.84 5.92 4.93 0 2.72-1.39 4.44-3.88 5.07l4.98 6.93v0.06h-3.91zm-2.83-7.39v4.53h3.85c1.96 0 3.06-0.85 3.06-2.38 0-1.36-0.79-2.15-2.89-2.15z"/>
			<path id="&lt;Compound Path&gt;" class="s0" d="m76.66 26.43v-2.27h3.31v2.27zm0.15 15.09v-13.31h3.05v13.31z"/>
			<path id="&lt;Compound Path&gt;" class="s0" d="m86.06 41.52l-5.27-13.31h3.32l1.81 5.15c0.62 1.79 1.3 3.68 1.87 5.38h0.05c0.6-1.7 1.25-3.59 1.87-5.38l1.84-5.15h3.2l-5.21 13.31z"/>
			<path id="&lt;Compound Path&gt;" fill-rule="evenodd" class="s0" d="m102.99 38.18h-0.06c-0.62 2.38-2.23 3.62-4.53 3.62-2.46 0-4.19-1.24-4.19-3.79 0-2.44 1.48-4.19 4.82-4.19h3.96v-0.54c0-1.81-0.74-2.8-2.58-2.8-1.64 0-2.57 0.73-2.88 2.66l-2.92-0.4c0.4-2.97 2.15-4.81 5.92-4.81 3.85 0 5.49 1.92 5.49 5.32v8.27h-3.03zm0-1.67v-0.43h-3.51c-1.47 0-2.26 0.54-2.26 1.45 0 0.93 0.59 1.78 2.32 1.78 2.09 0 3.45-1.19 3.45-2.8z"/>
			<path id="&lt;Compound Path&gt;" class="s0" d="m107.41 37.3l2.86-0.57c0.42 1.67 1.27 2.81 3.39 2.81 1.62 0 2.41-0.63 2.44-1.67 0-0.97-0.68-1.48-3.34-1.96-3.6-0.71-4.87-1.95-4.87-4.07 0-2.41 1.75-3.97 5.24-3.97 3.62 0 5.12 1.56 5.69 4.11l-2.92 0.65c-0.4-1.76-1.19-2.49-2.77-2.49-1.45 0-2.21 0.59-2.21 1.55 0 0.94 0.54 1.56 3.23 2.01 3.7 0.68 4.95 2.04 4.95 4.08 0 2.49-1.73 4.11-5.49 4.11-4.28 0-5.72-1.99-6.2-4.59z"/>
			<path id="&lt;Compound Path&gt;" fill-rule="evenodd" class="s0" d="m131.36 37.3h-7.31l-1.58 4.22h-3.34l6.79-16.99h3.68l6.8 16.99h-3.48zm-6.29-2.63h5.29l-0.73-1.99c-0.62-1.61-1.28-3.37-1.81-4.98h-0.2c-0.54 1.61-1.19 3.37-1.81 4.98z"/>
			<path id="&lt;Compound Path&gt;" class="s0" d="m140.19 41.52h-3.06v-13.31h3.06v3.65h0.03c0.59-2.83 2.29-3.99 4.53-3.99 3.2 0 4.42 2.1 4.42 4.98v8.67h-3.06v-7.87c0-1.62-0.71-3.03-2.78-3.03-1.95 0-3.14 1.13-3.14 3.03z"/>
			<path id="&lt;Compound Path&gt;" fill-rule="evenodd" class="s0" d="m159.64 38.18h-0.06c-0.62 2.38-2.23 3.62-4.53 3.62-2.46 0-4.19-1.24-4.19-3.79 0-2.44 1.48-4.19 4.82-4.19h3.96v-0.54c0-1.81-0.73-2.8-2.58-2.8-1.64 0-2.57 0.73-2.88 2.66l-2.92-0.4c0.4-2.97 2.15-4.81 5.92-4.81 3.85 0 5.49 1.92 5.49 5.32v8.27h-3.03zm0-1.67v-0.43h-3.51c-1.47 0-2.26 0.54-2.26 1.45 0 0.93 0.59 1.78 2.32 1.78 2.09 0 3.45-1.19 3.45-2.8z"/>
			<path id="&lt;Compound Path&gt;" class="s0" d="m171.05 30.65c-2.18 0-3.71 1.36-3.71 4.21 0 2.72 1.5 4.22 3.77 4.22 2.23 0 3.03-1.41 3.45-3.31l2.92 0.6c-0.54 3.39-2.47 5.52-6.32 5.52-4.19 0-6.93-2.47-6.93-7 0-4.41 2.8-7.02 6.85-7.02 3.99 0 5.83 1.98 6.37 5.41l-2.95 0.48c-0.39-1.87-1.38-3.11-3.45-3.11z"/>
			<path id="&lt;Compound Path&gt;" fill-rule="evenodd" class="s0" d="m178.47 34.84c0-4.39 2.72-6.97 6.82-6.97 4.08 0 6.8 2.58 6.8 6.97 0 4.36-2.58 7.05-6.8 7.05-4.27 0-6.82-2.69-6.82-7.05zm3.06-0.03c0 2.57 1.33 4.27 3.73 4.27 2.44 0 3.8-1.7 3.8-4.27 0-2.55-1.42-4.16-3.77-4.16-2.38 0-3.76 1.61-3.76 4.16z"/>
			<path id="&lt;Compound Path&gt;" class="s0" d="m196.76 41.52h-3.06v-13.31h3.06v3.65h0.03c0.59-2.83 2.29-3.99 4.53-3.99 3.19 0 4.41 2.1 4.41 4.98v8.67h-3.06v-7.87c0-1.62-0.7-3.03-2.77-3.03-1.95 0-3.14 1.13-3.14 3.03z"/>
			<path id="&lt;Compound Path&gt;" fill-rule="evenodd" class="s0" d="m216.21 38.18h-0.06c-0.62 2.38-2.24 3.62-4.53 3.62-2.46 0-4.19-1.24-4.19-3.79 0-2.44 1.47-4.19 4.81-4.19h3.97v-0.54c0-1.81-0.74-2.8-2.58-2.8-1.64 0-2.58 0.73-2.89 2.66l-2.91-0.4c0.39-2.97 2.15-4.81 5.91-4.81 3.85 0 5.5 1.92 5.5 5.32v8.27h-3.03zm0-1.67v-0.43h-3.51c-1.48 0-2.27 0.54-2.27 1.45 0 0.93 0.6 1.78 2.32 1.78 2.1 0 3.46-1.19 3.46-2.8z"/>
			<path id="&lt;Compound Path&gt;" fill-rule="evenodd" class="s0" d="m71.05 63.74h-7.68l-1.97 4.96h-1.54l6.5-16.06h1.72l6.5 16.06h-1.54zm-7.15-1.32h6.63l-3.33-8.35z"/>
			<path id="&lt;Compound Path&gt;" fill-rule="evenodd" class="s0" d="m78.48 68.7v-16.36h1.36v7.64c0.47-1.07 1.74-2.38 3.92-2.38 3.01 0 4.89 2.47 4.89 5.68 0 3.22-1.93 5.71-4.94 5.71-2.08 0-3.33-1.24-3.89-2.4v2.11zm8.81-5.42c0-2.6-1.52-4.46-3.74-4.46-2.22 0-3.74 1.86-3.74 4.46 0 2.63 1.52 4.49 3.74 4.49 2.22 0 3.74-1.86 3.74-4.49z"/>
			<path id="&lt;Compound Path&gt;" fill-rule="evenodd" class="s0" d="m92.39 63.31c0-3.4 2.33-5.69 5.36-5.69 3.02 0 5.37 2.29 5.37 5.69 0 3.37-2.35 5.68-5.37 5.68-3.01 0-5.36-2.31-5.36-5.68zm5.36 4.46c2.13 0 3.99-1.65 3.99-4.46 0-2.83-1.86-4.46-3.99-4.46-2.13 0-3.98 1.63-3.98 4.46 0 2.81 1.85 4.46 3.98 4.46z"/>
			<path id="&lt;Compound Path&gt;" fill-rule="evenodd" class="s0" d="m108.15 68.99c0.18 1.7 1.54 3.1 3.46 3.1 2.86 0 3.72-1.92 3.72-4.16v-2c-0.48 1.11-1.68 2.2-3.65 2.2-2.83 0-4.82-2.24-4.82-5.25 0-2.95 1.95-5.24 4.82-5.24 2.02 0 3.13 1 3.67 2.11v-1.86h1.34v10.01c0 2.52-1.11 5.39-5.1 5.39-2.63 0-4.46-1.72-4.73-3.98zm7.22-6.12c0-2.33-1.4-4.05-3.53-4.05-2.15 0-3.62 1.7-3.62 4.05 0 2.36 1.45 4.08 3.62 4.08 2.13 0 3.53-1.72 3.53-4.08z"/>
			<path id="&lt;Compound Path&gt;" fill-rule="evenodd" class="s0" d="m121.1 65.91c0-1.83 1.27-2.9 3.24-3.19l2.88-0.43c0.93-0.14 1.13-0.55 1.13-1.04 0-1.43-0.95-2.45-2.72-2.45-1.72 0-2.85 0.95-3.03 2.51l-1.27-0.27c0.25-2.06 1.97-3.42 4.28-3.42 2.81 0 4.1 1.7 4.1 3.76v5.46c0 0.86 0.07 1.4 0.16 1.86h-1.34c-0.04-0.25-0.13-0.98-0.13-1.86-0.5 1.02-1.79 2.13-3.76 2.13-2.27 0-3.54-1.5-3.54-3.06zm7.25-1.63v-1.22c-0.07 0.07-0.36 0.2-0.79 0.27l-3.01 0.45c-1.27 0.18-2.06 0.89-2.06 2.06 0 1 0.81 1.97 2.31 1.97 2.06 0 3.55-1.36 3.55-3.53z"/>
			<path id="&lt;Compound Path&gt;" fill-rule="evenodd" class="s0" d="m142.83 66.57c-0.48 1.11-1.68 2.42-3.79 2.42-3.03 0-4.98-2.49-4.98-5.71 0-3.17 1.99-5.68 4.98-5.68 2.31 0 3.38 1.4 3.76 2.33v-7.59h1.36v14.3c0 1.15 0.09 1.94 0.11 2.06h-1.33c-0.05-0.27-0.11-0.93-0.11-1.7zm-3.67 1.2c2.24 0 3.67-1.95 3.67-4.49 0-2.55-1.43-4.46-3.65-4.46-2.27 0-3.76 1.86-3.76 4.46 0 2.54 1.45 4.49 3.74 4.49z"/>
			<path id="&lt;Compound Path&gt;" fill-rule="evenodd" class="s0" d="m148.65 63.31c0-3.4 2.33-5.69 5.36-5.69 3.02 0 5.37 2.29 5.37 5.69 0 3.37-2.35 5.68-5.37 5.68-3.01 0-5.36-2.31-5.36-5.68zm5.36 4.46c2.13 0 3.99-1.65 3.99-4.46 0-2.83-1.86-4.46-3.99-4.46-2.13 0-3.98 1.63-3.98 4.46 0 2.81 1.85 4.46 3.98 4.46z"/>
			<path id="&lt;Compound Path&gt;" class="s0" d="m164.18 65.44c0.21 1.31 1.2 2.37 2.97 2.37 1.34 0 2.4-0.79 2.4-1.92 0-1-0.68-1.54-1.83-1.81l-1.75-0.41c-1.58-0.36-2.65-1.31-2.65-2.88 0-1.74 1.68-3.17 3.65-3.17 2.51 0 3.58 1.5 3.87 2.79l-1.2 0.45c-0.2-1.04-0.95-2.06-2.67-2.06-1.22 0-2.31 0.77-2.31 1.9 0 0.93 0.59 1.47 1.7 1.72l1.72 0.39c1.79 0.41 2.81 1.43 2.81 2.99 0 1.61-1.36 3.19-3.76 3.19-2.65 0-3.99-1.7-4.19-3.12z"/>
		</g>
		<g id="&lt;Group&gt;">
			<path id="&lt;Compound Path&gt;" class="s0" d="m181.91 55.26q-0.47 0-0.89-0.2-0.42-0.21-0.7-0.58l0.46-0.52q0.24 0.32 0.53 0.47 0.3 0.15 0.59 0.15 0.39 0 0.65-0.27 0.27-0.27 0.27-0.78 0-0.25-0.09-0.43-0.08-0.18-0.22-0.32-0.13-0.15-0.31-0.26-0.18-0.11-0.38-0.21-0.23-0.13-0.47-0.27-0.23-0.14-0.41-0.35-0.19-0.2-0.3-0.48-0.12-0.27-0.12-0.67 0-0.43 0.14-0.76 0.13-0.33 0.36-0.54 0.23-0.22 0.52-0.33 0.29-0.11 0.61-0.11 0.42 0.01 0.78 0.15 0.35 0.15 0.61 0.52l-0.46 0.51q-0.21-0.27-0.43-0.38-0.23-0.12-0.49-0.12-0.34 0-0.62 0.25-0.29 0.25-0.29 0.81 0 0.46 0.27 0.72 0.27 0.26 0.67 0.44 0.24 0.12 0.49 0.28 0.24 0.15 0.43 0.36 0.19 0.21 0.31 0.49 0.12 0.28 0.12 0.67 0 0.4-0.13 0.73-0.13 0.33-0.35 0.56-0.22 0.23-0.51 0.35-0.3 0.12-0.64 0.12z"/>
			<path id="&lt;Compound Path&gt;" fill-rule="evenodd" class="s0" d="m189.61 52.04q0 0.71-0.14 1.32-0.14 0.6-0.41 1.03-0.27 0.43-0.67 0.67-0.39 0.25-0.9 0.25-0.51 0-0.91-0.25-0.39-0.24-0.67-0.67-0.28-0.43-0.42-1.03-0.14-0.61-0.14-1.32 0-0.71 0.14-1.32 0.13-0.6 0.4-1.03 0.27-0.43 0.68-0.68 0.4-0.24 0.92-0.24 0.51 0 0.9 0.24 0.4 0.25 0.67 0.68 0.27 0.43 0.41 1.03 0.14 0.61 0.14 1.32zm-0.79 0q0-0.57-0.09-1.05-0.09-0.48-0.26-0.82-0.17-0.35-0.42-0.55-0.25-0.19-0.56-0.19-0.33 0-0.58 0.19-0.25 0.2-0.42 0.55-0.17 0.34-0.26 0.82-0.09 0.48-0.09 1.05 0 0.56 0.09 1.03 0.09 0.47 0.26 0.82 0.17 0.35 0.42 0.55 0.25 0.19 0.58 0.19 0.31 0 0.56-0.19 0.25-0.2 0.42-0.55 0.17-0.35 0.26-0.82 0.09-0.47 0.09-1.03z"/>
			<path id="&lt;Compound Path&gt;" class="s0" d="m191.84 55.15v-6.21h0.75v5.53h1.77v0.68z"/>
			<path id="&lt;Compound Path&gt;" class="s0" d="m199.59 53.89q-0.09 0.42-0.31 0.74-0.21 0.31-0.57 0.49-0.35 0.19-0.87 0.19-0.53 0-0.88-0.19-0.35-0.18-0.56-0.49-0.22-0.32-0.31-0.74-0.09-0.43-0.09-0.9v-4.05h0.77v3.97q0 0.34 0.05 0.65 0.04 0.31 0.16 0.55 0.12 0.24 0.33 0.38 0.22 0.14 0.55 0.14 0.32 0 0.53-0.14 0.21-0.14 0.34-0.38 0.12-0.24 0.17-0.55 0.04-0.31 0.04-0.65v-3.97h0.75v4.05q0 0.47-0.1 0.9z"/>
			<path id="&lt;Compound Path&gt;" class="s0" d="m204.06 55.31q-0.53 0-0.94-0.26-0.41-0.25-0.7-0.69-0.28-0.44-0.42-1.04-0.14-0.6-0.14-1.28 0-0.68 0.15-1.28 0.14-0.6 0.43-1.04 0.28-0.44 0.69-0.69 0.4-0.25 0.93-0.25 0.46 0 0.86 0.19 0.4 0.19 0.69 0.63l-0.49 0.49q-0.23-0.35-0.49-0.49-0.26-0.14-0.54-0.14-0.36 0-0.63 0.2-0.27 0.2-0.45 0.54-0.19 0.35-0.28 0.82-0.09 0.48-0.09 1.02 0 0.55 0.1 1.02 0.09 0.47 0.27 0.82 0.18 0.35 0.46 0.55 0.27 0.2 0.63 0.2 0.3 0 0.57-0.19 0.28-0.18 0.47-0.54l0.48 0.49q-0.55 0.92-1.56 0.92z"/>
			<path id="&lt;Compound Path&gt;" class="s0" d="m207.5 55.15v-6.22h0.75v6.22z"/>
			<path id="&lt;Compound Path&gt;" fill-rule="evenodd" class="s0" d="m214.75 52.04q0 0.71-0.14 1.32-0.14 0.6-0.41 1.03-0.28 0.43-0.67 0.67-0.4 0.25-0.91 0.25-0.5 0-0.9-0.25-0.4-0.24-0.67-0.67-0.28-0.43-0.42-1.03-0.14-0.61-0.14-1.32 0-0.71 0.13-1.32 0.14-0.6 0.41-1.03 0.27-0.43 0.67-0.68 0.4-0.24 0.92-0.24 0.51 0 0.91 0.24 0.39 0.25 0.67 0.68 0.27 0.43 0.41 1.03 0.14 0.61 0.14 1.32zm-0.79 0q0-0.57-0.09-1.05-0.09-0.48-0.26-0.82-0.17-0.35-0.42-0.55-0.25-0.19-0.57-0.19-0.32 0-0.57 0.19-0.25 0.2-0.42 0.55-0.17 0.34-0.26 0.82-0.09 0.48-0.09 1.05 0 0.56 0.09 1.03 0.09 0.47 0.26 0.82 0.17 0.35 0.42 0.55 0.25 0.19 0.57 0.19 0.32 0 0.57-0.19 0.25-0.2 0.42-0.55 0.17-0.35 0.26-0.82 0.09-0.47 0.09-1.03z"/>
			<path id="&lt;Compound Path&gt;" class="s0" d="m219.74 55.15l-1.98-4.94h-0.04v4.94h-0.74v-6.22h0.97l1.98 4.97h0.02v-4.97h0.71v6.22z"/>
			<path id="&lt;Compound Path&gt;" class="s0" d="m223.22 55.15v-6.22h2.67v0.68h-1.92v2h1.79v0.64h-1.79v2.22h2v0.68z"/>
			<path id="&lt;Compound Path&gt;" class="s0" d="m229.14 55.26q-0.47 0-0.89-0.2-0.42-0.21-0.7-0.58l0.46-0.52q0.24 0.32 0.53 0.47 0.3 0.15 0.59 0.15 0.39 0 0.65-0.27 0.27-0.27 0.27-0.78 0-0.25-0.09-0.43-0.08-0.18-0.22-0.32-0.13-0.15-0.31-0.26-0.18-0.11-0.38-0.21-0.23-0.13-0.47-0.27-0.23-0.14-0.41-0.35-0.19-0.2-0.3-0.48-0.12-0.27-0.12-0.67 0-0.43 0.14-0.76 0.13-0.33 0.36-0.54 0.23-0.22 0.52-0.33 0.29-0.11 0.61-0.11 0.42 0.01 0.78 0.15 0.35 0.15 0.61 0.52l-0.46 0.51q-0.21-0.27-0.43-0.38-0.23-0.12-0.49-0.12-0.34 0-0.62 0.25-0.29 0.25-0.29 0.81 0 0.46 0.27 0.72 0.27 0.26 0.67 0.44 0.24 0.12 0.49 0.28 0.24 0.15 0.43 0.36 0.19 0.21 0.31 0.49 0.12 0.28 0.12 0.67 0 0.4-0.13 0.73-0.13 0.33-0.35 0.56-0.22 0.23-0.51 0.35-0.3 0.12-0.64 0.12z"/>
			<path id="&lt;Compound Path&gt;" class="s0" d="m182.39 68.37q-0.34 0.51-1.11 0.51-0.56 0-0.92-0.3-0.35-0.29-0.47-0.84l0.68-0.27q0.07 0.34 0.25 0.53 0.18 0.2 0.45 0.2 0.39 0 0.55-0.31 0.16-0.31 0.16-0.96v-4.42h0.75v4.49q0 0.87-0.34 1.37z"/>
			<path id="&lt;Compound Path&gt;" class="s0" d="m188.74 67.46q-0.1 0.42-0.31 0.73-0.22 0.32-0.57 0.5-0.36 0.19-0.88 0.19-0.52 0-0.87-0.19-0.35-0.18-0.57-0.5-0.21-0.31-0.3-0.73-0.09-0.43-0.09-0.9v-4.05h0.77v3.97q0 0.34 0.04 0.65 0.05 0.31 0.17 0.55 0.11 0.23 0.33 0.38 0.21 0.14 0.54 0.14 0.33 0 0.54-0.14 0.21-0.15 0.33-0.38 0.13-0.24 0.17-0.55 0.05-0.31 0.05-0.65v-3.97h0.74v4.05q0 0.47-0.09 0.9z"/>
			<path id="&lt;Compound Path&gt;" fill-rule="evenodd" class="s0" d="m193.91 68.72l-1.15-2.82h-0.68v2.82h-0.75v-6.22h1.57q0.31 0 0.62 0.08 0.3 0.09 0.54 0.29 0.24 0.19 0.38 0.52 0.14 0.32 0.14 0.78 0 0.39-0.1 0.67-0.11 0.28-0.26 0.47-0.16 0.2-0.36 0.31-0.2 0.11-0.38 0.16l1.24 2.94zm-0.07-4.51q0-0.31-0.1-0.51-0.09-0.21-0.23-0.33-0.14-0.11-0.33-0.17-0.19-0.05-0.38-0.05h-0.72v2.13h0.74q0.47 0 0.74-0.27 0.28-0.27 0.28-0.8z"/>
			<path id="&lt;Compound Path&gt;" class="s0" d="m196.81 68.72v-6.22h0.74v6.22zm0.67-6.9h-0.63l1.01-1.63h0.82z"/>
			<path id="&lt;Compound Path&gt;" fill-rule="evenodd" class="s0" d="m203.87 65.62q0 1.51-0.63 2.31-0.63 0.79-1.72 0.79h-1.4v-6.22h1.41q1.09 0 1.71 0.8 0.63 0.8 0.63 2.32zm-0.77-0.01q0-0.64-0.12-1.1-0.13-0.45-0.34-0.75-0.22-0.3-0.51-0.44-0.3-0.14-0.63-0.14h-0.64v4.86h0.64q0.33 0 0.63-0.14 0.29-0.14 0.51-0.44 0.21-0.3 0.34-0.76 0.12-0.45 0.12-1.09z"/>
			<path id="&lt;Compound Path&gt;" class="s0" d="m206.1 68.72v-6.22h0.75v6.22z"/>
			<path id="&lt;Compound Path&gt;" class="s0" d="m211.29 68.88q-0.53 0-0.94-0.26-0.42-0.25-0.7-0.69-0.28-0.44-0.42-1.04-0.15-0.6-0.15-1.28 0-0.69 0.15-1.28 0.15-0.6 0.43-1.04 0.28-0.44 0.69-0.69 0.41-0.25 0.94-0.25 0.45 0 0.85 0.19 0.4 0.19 0.7 0.63l-0.5 0.49q-0.22-0.35-0.48-0.49-0.27-0.14-0.55-0.14-0.36 0-0.63 0.2-0.26 0.2-0.45 0.54-0.18 0.35-0.27 0.82-0.1 0.48-0.1 1.02 0 0.55 0.1 1.02 0.1 0.47 0.28 0.82 0.18 0.35 0.45 0.55 0.27 0.2 0.63 0.2 0.31 0 0.58-0.19 0.27-0.18 0.46-0.54l0.49 0.49q-0.55 0.92-1.56 0.92z"/>
			<path id="&lt;Compound Path&gt;" fill-rule="evenodd" class="s0" d="m217.26 68.72l-0.36-1.46h-1.83l-0.37 1.46h-0.75l1.56-6.22h0.99l1.53 6.22zm-1.26-5.46h-0.03l-0.79 3.37h1.6z"/>
			<path id="&lt;Compound Path&gt;" class="s0" d="m220.83 68.83q-0.47 0-0.89-0.2-0.42-0.21-0.7-0.58l0.46-0.52q0.24 0.32 0.53 0.47 0.3 0.15 0.59 0.15 0.39 0 0.65-0.27 0.27-0.27 0.27-0.78 0-0.25-0.09-0.43-0.08-0.18-0.22-0.33-0.13-0.14-0.31-0.25-0.19-0.11-0.38-0.22-0.23-0.12-0.47-0.26-0.23-0.14-0.42-0.35-0.18-0.2-0.29-0.48-0.12-0.28-0.12-0.67 0-0.43 0.14-0.76 0.13-0.33 0.36-0.55 0.23-0.21 0.52-0.32 0.29-0.11 0.61-0.11 0.42 0 0.78 0.15 0.35 0.15 0.61 0.52l-0.46 0.51q-0.21-0.27-0.43-0.38-0.23-0.12-0.49-0.12-0.34 0-0.63 0.25-0.28 0.25-0.28 0.8 0 0.47 0.27 0.73 0.27 0.26 0.66 0.44 0.25 0.12 0.5 0.28 0.24 0.15 0.43 0.36 0.19 0.21 0.31 0.49 0.12 0.28 0.12 0.67 0 0.4-0.13 0.73-0.13 0.33-0.35 0.56-0.22 0.23-0.51 0.35-0.3 0.12-0.64 0.12z"/>
			<path id="&lt;Compound Path&gt;" class="s0" d="m227.48 68.72v-6.22h0.75v6.22z"/>
			<path id="&lt;Compound Path&gt;" class="s0" d="m233.56 68.72l-1.99-4.94h-0.03v4.94h-0.75v-6.22h0.98l1.98 4.97h0.02v-4.97h0.71v6.22z"/>
			<path id="&lt;Compound Path&gt;" class="s0" d="m238.12 63.15v5.57h-0.74v-5.57h-1.2v-0.65h3.14v0.65z"/>
			<path id="&lt;Compound Path&gt;" class="s0" d="m241.03 68.72v-6.22h2.67v0.68h-1.93v2h1.8v0.64h-1.8v2.22h2.01v0.68z"/>
			<path id="&lt;Compound Path&gt;" class="s0" d="m248.77 68.72q-0.37 0.16-0.88 0.16-0.55 0-0.97-0.24-0.43-0.24-0.72-0.67-0.3-0.43-0.45-1.03-0.15-0.6-0.15-1.34 0-0.69 0.14-1.28 0.14-0.59 0.42-1.03 0.29-0.44 0.7-0.69 0.41-0.25 0.95-0.25 0.47 0 0.88 0.19 0.4 0.18 0.69 0.63l-0.51 0.5q-0.22-0.35-0.49-0.49-0.27-0.15-0.55-0.15-0.35 0-0.63 0.2-0.27 0.2-0.45 0.54-0.18 0.35-0.27 0.82-0.09 0.47-0.09 1.01 0 0.58 0.1 1.06 0.1 0.47 0.29 0.82 0.19 0.34 0.47 0.53 0.28 0.19 0.64 0.19 0.5 0 0.79-0.24v-1.99h-0.89v-0.68h1.64v3.03q-0.28 0.25-0.66 0.4z"/>
			<path id="&lt;Compound Path&gt;" fill-rule="evenodd" class="s0" d="m254.42 68.72l-1.16-2.82h-0.68v2.82h-0.74v-6.22h1.56q0.32 0 0.62 0.08 0.31 0.09 0.54 0.29 0.24 0.19 0.38 0.52 0.14 0.32 0.14 0.78 0 0.39-0.1 0.67-0.1 0.28-0.26 0.47-0.16 0.2-0.36 0.31-0.19 0.11-0.37 0.16l1.24 2.94zm-0.08-4.51q0-0.31-0.09-0.51-0.09-0.21-0.23-0.33-0.15-0.11-0.33-0.17-0.19-0.05-0.39-0.05h-0.71v2.13h0.74q0.46 0 0.74-0.27 0.27-0.27 0.27-0.8z"/>
			<path id="&lt;Compound Path&gt;" fill-rule="evenodd" class="s0" d="m259.77 68.72l-0.36-1.46h-1.83l-0.36 1.46h-0.76l1.56-6.22h1l1.52 6.22zm-1.25-5.46h-0.03l-0.8 3.37h1.61z"/>
			<path id="&lt;Compound Path&gt;" class="s0" d="m262.32 68.72v-6.21h0.75v5.53h1.77v0.68z"/>
			<path id="&lt;Compound Path&gt;" class="s0" d="m266.62 68.72v-6.22h2.66v0.68h-1.92v2h1.8v0.64h-1.8v2.22h2v0.68z"/>
			<path id="&lt;Compound Path&gt;" class="s0" d="m272.54 68.83q-0.47 0-0.89-0.2-0.42-0.21-0.7-0.58l0.46-0.52q0.24 0.32 0.53 0.47 0.3 0.15 0.59 0.15 0.38 0 0.65-0.27 0.26-0.27 0.27-0.78 0-0.25-0.09-0.43-0.08-0.18-0.22-0.33-0.14-0.14-0.32-0.25-0.18-0.11-0.37-0.22-0.24-0.12-0.47-0.26-0.23-0.14-0.42-0.35-0.18-0.2-0.3-0.48-0.11-0.28-0.11-0.67 0-0.43 0.14-0.76 0.13-0.33 0.36-0.55 0.22-0.21 0.52-0.32 0.29-0.11 0.61-0.11 0.42 0 0.77 0.15 0.36 0.15 0.62 0.52l-0.46 0.51q-0.21-0.27-0.43-0.38-0.23-0.12-0.49-0.12-0.34 0-0.63 0.25-0.29 0.25-0.29 0.8 0 0.47 0.27 0.73 0.28 0.26 0.67 0.44 0.25 0.12 0.49 0.28 0.25 0.15 0.44 0.36 0.19 0.21 0.31 0.49 0.12 0.28 0.12 0.67 0 0.4-0.13 0.73-0.13 0.33-0.35 0.56-0.22 0.23-0.52 0.35-0.29 0.12-0.63 0.12z"/>
		</g>
	</g>
</svg>