<svg version="1.2" xmlns="http://www.w3.org/2000/svg" viewBox="0 0 260 98" width="260" height="98">
	<style>
		.s0 { fill: #7e2e31 } 
		.s1 { fill: #4f542f } 
		.s2 { fill: #1e1e1c } 
	</style>
	<g id="&lt;Group&gt;">
		<path id="&lt;Compound Path&gt;" fill-rule="evenodd" class="s0" d="m0.58 97.84v-48.75h48.61v48.75zm42.95-2.62l3.74 0.08-3.2-8.22c-1.1 0.29-1.31 3.25-1.32 4.11-0.02 1.4 0.17 2.77 0.78 4.03zm-12.88-28.4c1.66 4.16 4.55 7.88 5.93 12.17 1.65 5.09 1.65 11.11 2.69 16.31h2.89c-2.29-3.31 0.87-8.26 0.51-10.93-0.07-0.52-2.93-9.44-3.23-10.11-1.3-2.85-6.46-5.26-8.79-7.44zm1.28 7.6v9.81c0 0.54 2.5 10.64 2.83 11.07l2.28 0.01-2.23-15.2zm0.01 20.89c1.16 0.05 1.33 0.32 1.27-0.94-0.17-3.4-2.22-7.69-2.55-11.41-0.49-5.47 1.86-12.29-3.2-16.14 1 5.02-1.8 10.73-1.24 15.45 0.54 4.54 4.99 8.49 5.72 13.04zm-5.13 0h3.84l-2.24-4.42c-0.75 0.01-1.96 4.08-1.6 4.42zm-3.84 0l2.52-0.03c-0.36-2.15 1.5-4.48 1.66-6.24 0.13-1.57-1.93-3.26-1.63-5.12l-1.75 4.9zm-8.95 0l7.04 0.01c-1-9.58 4.77-18.25 3.82-27.85l-4.33 8.04c0.49 7.48-2.08 13.92-6.53 19.8zm-9.6 0c1.36 0 1.17 0 2.88 0 0.82-0.32 5.92-5.78 6.93-6.74 0.89-0.84 2.55-1.16 3.26-2.16 1.33-1.82 1.71-6.54 1.64-8.81zm5.12 0c3.96 0 4.64-2.26 5.75-5.06zm2.55-12.65c-0.37-0.35-8.68 5.35-8.95 5.79 0 2.04 0.01 1.8 0.01 4.33 1.04-0.66 9.44-9.66 8.94-10.12zm29.43-6.34c0.79 4.51 2.6 9.86 5.75 13.3 0-8.29-0.45-9.2-5.75-13.3zm-38.38 10.13c1.28-0.61 6.5-4.32 7.47-4.95 1.22-0.8 2.83-0.81 4.01-1.73 2.63-2.06 7.58-10.7 8.34-14.21l-4.46 4.76c-2.06 2.06-5.57 3.19-7.39 5.35-1.75 2.08-1.6 4.54-2.83 6.06-1.49 1.83-5.14 1.2-5.14 4.72zm0-3.8c4.07-0.52 5.33-3.27 5.75-6.96l-5.69 1.96zm34.55-12.67c1.93 1.96 6.6 7.13 9.58 9.07 0-2.09 0-1.9 0-3.5-0.44-0.52-7.06-5.9-7.48-6.07-0.5-0.21-2.3-0.59-2.1 0.5zm-34.55 5.71c7.45-2.07 14.34-5.41 18.55-12.02l-18.55 7.99zm39.02-6.96c0.54 1.31 3.5 4.17 5.11 4.43v-4.12zm-39.02 0c0.55 0.57 11.27-3.94 12.15-5.69-4.2-0.49-7.98 1.69-12.12 1.92zm25.59-7.59c-1.06 0.98 5.14 5.7 6.26 6.13 4.42 1.68 7.85 0.14 12.29 0.19 0-1.12-0.01-1.32-0.01-2.35-0.63-1.81-15.8-2.73-18.54-3.97zm-25.59 2.53c0.42 0.41 5.15-1.17 6.19-1.53 0.61-0.22 1.78-0.44 2.12-1l-8.31-2.54zm0.09-12.1l-0.03 4.39c6.43 2.32 17.39 8.19 19.93 2.47 0.63-1.41 0.16-6.51-1.76-6.86zm34.45 8.93l9.59 1.27c0-6.74-7.01-5.66-9.59-1.27zm7.73-8.93h-18.92c-1.32 0.64-0.12 5.69 0.46 6.26 0.38 0.37 6.48 1.98 7.23 1.96 3.14-0.08 8.89-6.07 11.23-8.22z"/>
		<path id="&lt;Compound Path&gt;" fill-rule="evenodd" class="s1" d="m49.19 0.35v48.74h-48.61v-48.74zm-34.56 2.26c-4.28 0-7.62 0-10.25 0l4.52 11.03c1.31-1.23 4.94-8.56 5.73-11.03zm4.51 0c-1.78 0-1.47 0-2.96 0-1.2 3.2-0.47 5.09 1.04 7.23l0.97-2.37q0.78-1.9 0.9-3.94zm-0.59 11.03c0.29-1.24 3.77-5.22 4.72-11.03-1.45 0-0.99 0-2.32 0-0.42 1.25-1.96 5.65-2.2 6.87-0.13 0.65-0.41 1.33-0.2 4.16zm4.41 8.23c-0.45-5.57 2.6-13.85 3.2-19.26-0.91 0-0.77 0-1.56 0-1.13 4.55-3.16 8.22-5.85 12.62zm3.21 5.07c3.19-0.17 2.86-3.52 3.93-5.28 3.32-5.46 2.9-14.98-1.31-19.08l-1.78 9.03q-0.84 4.25-0.84 8.58zm8.22-24.36c-1.69 3.07 1.15 11.46 2.97 12.95 1.39-0.01 2.71-11.57 2.25-12.95-1.95 0-3.22 0-5.22 0zm12.27 0.1l-5.11-0.1-0.67 5.99c1.17 0.79 6.2-5.58 5.78-5.89zm-21.13 43.88c-1.33-4.21-8.08-3.44-11.77-5.13-9.83-4.49-2.88-23.26-7.75-31.58l-2.87-5.07v17.37c0 1.32 3.12 6.69 5.47 15.52 0.78 2.9 0.23 5.92 0.28 8.89zm8.95-14.56c0.37-2.78 3.76-3.46 5.05-5.46 0.95-1.49 1.18-3.8 2.09-5.52 2.51-4.79 5.02-6.47 5.02-14.34-7.77 4.07-6.46 12.25-9.26 18.37-1.2 2.6-6.06 4.65-2.9 6.95zm-19.32-11.53c1.6-1.61 2.07-10.35-1.01-13.16-3.29 4.34-5.29 10.16-4.63 15.61 1.09-1.02 4.91-1.72 5.64-2.45zm31.48 9.32v-14.25l-4.78 8.25-1.61 8.84zm-29.06-12.47c-0.73 2.56-2.05 9.95-1.51 12.34 0.68 2.98 4.44 4.77 5.88 7.47l2.93 5c-0.73-4.8-0.41-11.31-1.54-15.87-0.65-2.59-5.76-8.94-5.76-8.94zm18.82 0.13l-4.39 4.82c-0.85 1.45-0.63 3.29-1.71 4.64-1.62 2.01-3.45 1.59-2.53 6.35 3.46-5.35 10.05-8.56 8.63-15.81zm-21.11 5.06c-8.07-0.63-6.24 8.77-0.32 10.77 2.04 0.23-0.14-2.51-0.33-4.1-0.26-2.25 0.08-4.5 0.65-6.67zm-12.15 5.07v8.86l4.61 2.2zm33.9 18.99c-0.07-6 2.54-11.63 2.55-17.73-2.4 0.49-6.08 5.97-6.39 7.97-0.38 2.44 1.45 6.85 0.64 9.76zm-4.49-15.19c-0.76 0.25-2.24 1.23-2.62 1.65-0.75 0.83-2.16 1.91-2.31 3.82-0.08 1 0.78 9.57 1.49 9.76l3.45-0.04c0.29-5.22-1.29-10.04-0.01-15.19zm-10.23 10.12c-0.99-6.87-7.76-5.89-12.15-9.49 0.35 7.01 6.05 8.81 12.15 9.49zm24.3-9.04l-2.71 1.68c-2.45 1.51-4.2 3.92-4.87 6.7l-1.37 5.72h8.95zm-43.49 5.25v8.87h4.48c0.49-4.09-0.34-7.31-4.48-8.87z"/>
		<g id="&lt;Group&gt;">
			<path id="&lt;Compound Path&gt;" fill-rule="evenodd" class="s2" d="m63.09 32.81h-2.68v6.38h-3.06v-16.09h7c3.79 0 5.61 1.74 5.61 4.67 0 2.57-1.31 4.21-3.67 4.8l4.72 6.57v0.05h-3.71zm-2.68-7v4.29h3.65c1.85 0 2.9-0.8 2.9-2.25 0-1.29-0.75-2.04-2.74-2.04z"/>
			<path id="&lt;Compound Path&gt;" class="s2" d="m72.75 24.9v-2.15h3.14v2.15zm0.13 14.29v-12.6h2.9v12.6z"/>
			<path id="&lt;Compound Path&gt;" class="s2" d="m81.65 39.19l-4.98-12.6h3.13l1.72 4.88c0.59 1.69 1.23 3.48 1.77 5.09h0.05c0.57-1.61 1.18-3.4 1.77-5.09l1.75-4.88h3.03l-4.94 12.6z"/>
			<path id="&lt;Compound Path&gt;" fill-rule="evenodd" class="s2" d="m97.69 36.03h-0.05c-0.59 2.25-2.12 3.43-4.29 3.43-2.33 0-3.97-1.18-3.97-3.59 0-2.31 1.39-3.97 4.56-3.97h3.75v-0.51c0-1.72-0.69-2.66-2.44-2.66-1.55 0-2.44 0.7-2.73 2.52l-2.77-0.37c0.38-2.82 2.04-4.56 5.61-4.56 3.65 0 5.2 1.82 5.2 5.04v7.83h-2.87zm0-1.58v-0.4h-3.32c-1.4 0-2.15 0.51-2.15 1.37 0 0.88 0.57 1.68 2.2 1.68 1.99 0 3.27-1.12 3.27-2.65z"/>
			<path id="&lt;Compound Path&gt;" class="s2" d="m101.88 35.2l2.71-0.54c0.4 1.58 1.2 2.65 3.22 2.65 1.52 0 2.28-0.59 2.3-1.58 0-0.91-0.64-1.39-3.16-1.85-3.41-0.67-4.62-1.85-4.62-3.86 0-2.28 1.67-3.76 4.97-3.76 3.43 0 4.85 1.48 5.39 3.89l-2.77 0.62c-0.37-1.66-1.12-2.36-2.62-2.36-1.37 0-2.1 0.56-2.1 1.48 0 0.88 0.51 1.47 3.06 1.9 3.52 0.64 4.7 1.93 4.7 3.86 0 2.36-1.64 3.89-5.21 3.89-4.05 0-5.42-1.88-5.87-4.34z"/>
			<path id="&lt;Compound Path&gt;" fill-rule="evenodd" class="s2" d="m124.57 35.2h-6.92l-1.5 3.99h-3.17l6.44-16.09h3.49l6.43 16.09h-3.3zm-5.95-2.49h5.02l-0.7-1.88c-0.59-1.53-1.21-3.19-1.72-4.72h-0.19c-0.51 1.53-1.12 3.19-1.71 4.72z"/>
			<path id="&lt;Compound Path&gt;" class="s2" d="m132.94 39.19h-2.9v-12.6h2.9v3.46h0.02c0.57-2.69 2.18-3.79 4.3-3.79 3.03 0 4.18 1.99 4.18 4.72v8.21h-2.9v-7.45c0-1.53-0.67-2.87-2.62-2.87-1.86 0-2.98 1.07-2.98 2.87z"/>
			<path id="&lt;Compound Path&gt;" fill-rule="evenodd" class="s2" d="m151.36 36.03h-0.05c-0.59 2.25-2.12 3.43-4.29 3.43-2.33 0-3.97-1.18-3.97-3.59 0-2.31 1.39-3.97 4.56-3.97h3.75v-0.51c0-1.72-0.69-2.66-2.44-2.66-1.55 0-2.44 0.7-2.73 2.52l-2.76-0.37c0.37-2.82 2.03-4.56 5.6-4.56 3.65 0 5.2 1.82 5.2 5.04v7.83h-2.87zm0-1.58v-0.4h-3.32c-1.4 0-2.15 0.51-2.15 1.37 0 0.88 0.57 1.68 2.2 1.68 1.99 0 3.27-1.12 3.27-2.65z"/>
			<path id="&lt;Compound Path&gt;" class="s2" d="m162.17 28.89c-2.06 0-3.51 1.29-3.51 4 0 2.57 1.42 4 3.57 4 2.12 0 2.87-1.35 3.27-3.14l2.76 0.56c-0.51 3.22-2.33 5.23-5.98 5.23-3.97 0-6.57-2.33-6.57-6.62 0-4.19 2.66-6.66 6.49-6.66 3.78 0 5.53 1.88 6.04 5.13l-2.79 0.45c-0.38-1.77-1.32-2.95-3.28-2.95z"/>
			<path id="&lt;Compound Path&gt;" fill-rule="evenodd" class="s2" d="m169.2 32.86c0-4.16 2.58-6.6 6.47-6.6 3.86 0 6.43 2.44 6.43 6.6 0 4.13-2.44 6.68-6.43 6.68-4.05 0-6.47-2.55-6.47-6.68zm2.9-0.02c0 2.44 1.26 4.05 3.54 4.05 2.31 0 3.59-1.61 3.59-4.05 0-2.42-1.34-3.95-3.56-3.95-2.26 0-3.57 1.53-3.57 3.95z"/>
			<path id="&lt;Compound Path&gt;" class="s2" d="m186.53 39.19h-2.9v-12.6h2.9v3.46h0.03c0.56-2.69 2.17-3.79 4.29-3.79 3.03 0 4.18 1.99 4.18 4.72v8.21h-2.9v-7.45c0-1.53-0.67-2.87-2.62-2.87-1.86 0-2.98 1.07-2.98 2.87z"/>
			<path id="&lt;Compound Path&gt;" fill-rule="evenodd" class="s2" d="m204.96 36.03h-0.06c-0.59 2.25-2.12 3.43-4.29 3.43-2.33 0-3.97-1.18-3.97-3.59 0-2.31 1.4-3.97 4.56-3.97h3.76v-0.51c0-1.72-0.7-2.66-2.45-2.66-1.55 0-2.44 0.7-2.73 2.52l-2.76-0.37c0.37-2.82 2.03-4.56 5.6-4.56 3.65 0 5.21 1.82 5.21 5.04v7.83h-2.87zm0-1.58v-0.4h-3.33c-1.4 0-2.15 0.51-2.15 1.37 0 0.88 0.57 1.68 2.2 1.68 1.99 0 3.28-1.12 3.28-2.65z"/>
			<path id="&lt;Compound Path&gt;" fill-rule="evenodd" class="s2" d="m67.43 60.24h-7.27l-1.87 4.7h-1.46l6.16-15.21h1.63l6.16 15.21h-1.46zm-6.78-1.24h6.29l-3.16-7.92z"/>
			<path id="&lt;Compound Path&gt;" fill-rule="evenodd" class="s2" d="m74.47 64.94v-15.49h1.29v7.23c0.45-1.01 1.65-2.25 3.71-2.25 2.86 0 4.64 2.34 4.64 5.38 0 3.05-1.83 5.41-4.68 5.41-1.98 0-3.16-1.18-3.69-2.27v1.99zm8.34-5.13c0-2.46-1.43-4.22-3.54-4.22-2.1 0-3.54 1.76-3.54 4.22 0 2.49 1.44 4.25 3.54 4.25 2.11 0 3.54-1.76 3.54-4.25z"/>
			<path id="&lt;Compound Path&gt;" fill-rule="evenodd" class="s2" d="m87.65 59.83c0-3.21 2.21-5.38 5.08-5.38 2.86 0 5.09 2.17 5.09 5.38 0 3.2-2.23 5.39-5.09 5.39-2.85 0-5.08-2.19-5.08-5.39zm5.08 4.23c2.02 0 3.78-1.56 3.78-4.23 0-2.68-1.76-4.22-3.78-4.22-2.01 0-3.77 1.54-3.77 4.22 0 2.67 1.76 4.23 3.77 4.23z"/>
			<path id="&lt;Compound Path&gt;" fill-rule="evenodd" class="s2" d="m102.58 65.22c0.17 1.61 1.46 2.94 3.28 2.94 2.71 0 3.52-1.82 3.52-3.95v-1.89c-0.45 1.06-1.58 2.09-3.45 2.09-2.68 0-4.57-2.13-4.57-4.98 0-2.79 1.84-4.96 4.57-4.96 1.91 0 2.96 0.94 3.47 2v-1.76h1.27v9.48c0 2.38-1.05 5.11-4.83 5.11-2.49 0-4.22-1.63-4.48-3.78zm6.84-5.79c0-2.21-1.33-3.84-3.34-3.84-2.04 0-3.44 1.61-3.44 3.84 0 2.23 1.38 3.86 3.44 3.86 2.01 0 3.34-1.63 3.34-3.86z"/>
			<path id="&lt;Compound Path&gt;" fill-rule="evenodd" class="s2" d="m114.85 62.3c0-1.74 1.21-2.74 3.07-3.02l2.73-0.41c0.88-0.13 1.07-0.52 1.07-0.99 0-1.35-0.9-2.32-2.57-2.32-1.63 0-2.71 0.91-2.88 2.39l-1.2-0.26c0.24-1.95 1.87-3.24 4.06-3.24 2.66 0 3.88 1.61 3.88 3.56v5.17c0 0.82 0.06 1.33 0.15 1.76h-1.27c-0.04-0.23-0.13-0.92-0.13-1.76-0.47 0.97-1.69 2.02-3.56 2.02-2.14 0-3.35-1.42-3.35-2.9zm6.87-1.54v-1.16c-0.06 0.06-0.34 0.19-0.75 0.26l-2.85 0.43c-1.21 0.17-1.96 0.83-1.96 1.95 0 0.94 0.78 1.86 2.19 1.86 1.96 0 3.37-1.28 3.37-3.34z"/>
			<path id="&lt;Compound Path&gt;" fill-rule="evenodd" class="s2" d="m135.43 62.92c-0.45 1.06-1.58 2.3-3.58 2.3-2.88 0-4.72-2.36-4.72-5.41 0-3 1.89-5.38 4.72-5.38 2.19 0 3.2 1.33 3.56 2.21v-7.19h1.29v13.54c0 1.09 0.08 1.84 0.11 1.95h-1.27c-0.04-0.26-0.11-0.88-0.11-1.61zm-3.47 1.14c2.12 0 3.47-1.85 3.47-4.25 0-2.42-1.35-4.23-3.45-4.23-2.15 0-3.56 1.76-3.56 4.23 0 2.4 1.37 4.25 3.54 4.25z"/>
			<path id="&lt;Compound Path&gt;" fill-rule="evenodd" class="s2" d="m140.95 59.83c0-3.21 2.21-5.38 5.08-5.38 2.86 0 5.09 2.17 5.09 5.38 0 3.2-2.23 5.39-5.09 5.39-2.85 0-5.08-2.19-5.08-5.39zm5.08 4.23c2.02 0 3.78-1.56 3.78-4.23 0-2.68-1.76-4.22-3.78-4.22-2.01 0-3.77 1.54-3.77 4.22 0 2.67 1.76 4.23 3.77 4.23z"/>
			<path id="&lt;Compound Path&gt;" class="s2" d="m155.67 61.85c0.19 1.25 1.13 2.25 2.81 2.25 1.26 0 2.27-0.75 2.27-1.82 0-0.94-0.64-1.46-1.74-1.72l-1.65-0.38c-1.5-0.35-2.51-1.25-2.51-2.73 0-1.65 1.59-3 3.46-3 2.38 0 3.39 1.41 3.67 2.64l-1.14 0.43c-0.19-0.99-0.9-1.96-2.53-1.96-1.16 0-2.19 0.73-2.19 1.81 0 0.88 0.56 1.39 1.61 1.63l1.63 0.36c1.69 0.39 2.66 1.35 2.66 2.84 0 1.52-1.29 3.02-3.56 3.02-2.51 0-3.78-1.61-3.97-2.96z"/>
		</g>
		<g id="&lt;Group&gt;">
			<path id="&lt;Compound Path&gt;" class="s2" d="m172.47 52.21q-0.45 0-0.85-0.19-0.4-0.19-0.66-0.55l0.43-0.49q0.23 0.3 0.51 0.45 0.28 0.14 0.56 0.14 0.36 0 0.61-0.26 0.25-0.26 0.25-0.74 0-0.23-0.08-0.41-0.08-0.17-0.21-0.3-0.13-0.14-0.3-0.24-0.17-0.11-0.35-0.21-0.22-0.12-0.44-0.25-0.22-0.13-0.4-0.33-0.18-0.19-0.28-0.45-0.11-0.27-0.11-0.64 0-0.41 0.13-0.72 0.13-0.31 0.34-0.52 0.21-0.2 0.49-0.3 0.28-0.1 0.58-0.1 0.4 0 0.73 0.14 0.34 0.14 0.59 0.49l-0.44 0.48q-0.19-0.26-0.41-0.36-0.21-0.11-0.46-0.11-0.32 0-0.59 0.23-0.28 0.24-0.28 0.76 0 0.44 0.26 0.69 0.26 0.25 0.63 0.42 0.24 0.12 0.47 0.26 0.23 0.15 0.41 0.34 0.18 0.2 0.3 0.47 0.11 0.27 0.11 0.63 0 0.39-0.12 0.7-0.13 0.31-0.34 0.53-0.21 0.22-0.48 0.33-0.28 0.11-0.6 0.11z"/>
			<path id="&lt;Compound Path&gt;" fill-rule="evenodd" class="s2" d="m179.76 49.16q0 0.67-0.13 1.25-0.14 0.57-0.39 0.98-0.26 0.41-0.64 0.64-0.37 0.23-0.85 0.23-0.49 0-0.86-0.23-0.38-0.23-0.64-0.64-0.26-0.41-0.39-0.98-0.14-0.58-0.14-1.25 0-0.68 0.13-1.25 0.13-0.57 0.39-0.98 0.25-0.41 0.63-0.64 0.38-0.23 0.88-0.23 0.48 0 0.85 0.23 0.38 0.23 0.64 0.64 0.25 0.41 0.39 0.98 0.13 0.57 0.13 1.25zm-0.75 0q0-0.54-0.08-0.99-0.09-0.46-0.25-0.78-0.16-0.33-0.4-0.52-0.23-0.18-0.53-0.18-0.31 0-0.55 0.18-0.24 0.19-0.4 0.52-0.16 0.32-0.24 0.78-0.09 0.45-0.09 0.99 0 0.54 0.09 0.98 0.08 0.44 0.24 0.78 0.16 0.33 0.4 0.51 0.24 0.18 0.55 0.18 0.3 0 0.53-0.18 0.24-0.18 0.4-0.51 0.16-0.34 0.25-0.78 0.08-0.44 0.08-0.98z"/>
			<path id="&lt;Compound Path&gt;" class="s2" d="m181.87 52.11v-5.89h0.71v5.24h1.68v0.65z"/>
			<path id="&lt;Compound Path&gt;" class="s2" d="m189.21 50.91q-0.09 0.4-0.29 0.7-0.2 0.3-0.54 0.47-0.33 0.18-0.83 0.18-0.5 0-0.83-0.18-0.33-0.17-0.53-0.47-0.21-0.3-0.29-0.7-0.09-0.4-0.09-0.85v-3.84h0.73v3.76q0 0.33 0.04 0.62 0.05 0.3 0.16 0.52 0.11 0.23 0.32 0.36 0.2 0.13 0.51 0.13 0.31 0 0.51-0.13 0.2-0.13 0.32-0.36 0.11-0.22 0.16-0.52 0.04-0.29 0.04-0.62v-3.76h0.71v3.84q0 0.45-0.1 0.85z"/>
			<path id="&lt;Compound Path&gt;" class="s2" d="m193.45 52.26q-0.5 0-0.89-0.25-0.39-0.24-0.66-0.65-0.27-0.42-0.4-0.99-0.14-0.56-0.14-1.21 0-0.65 0.14-1.21 0.14-0.57 0.41-0.99 0.27-0.42 0.65-0.65 0.39-0.24 0.89-0.24 0.43 0 0.81 0.18 0.38 0.18 0.66 0.6l-0.47 0.47q-0.22-0.33-0.46-0.47-0.25-0.13-0.52-0.13-0.34 0-0.59 0.19-0.25 0.18-0.43 0.51-0.18 0.33-0.26 0.78-0.09 0.45-0.09 0.96 0 0.52 0.09 0.97 0.09 0.44 0.27 0.77 0.17 0.34 0.42 0.52 0.26 0.19 0.6 0.19 0.29 0 0.55-0.17 0.26-0.18 0.44-0.51l0.46 0.46q-0.53 0.87-1.48 0.87z"/>
			<path id="&lt;Compound Path&gt;" class="s2" d="m196.71 52.11v-5.9h0.7v5.9z"/>
			<path id="&lt;Compound Path&gt;" fill-rule="evenodd" class="s2" d="m203.57 49.16q0 0.67-0.13 1.25-0.13 0.57-0.39 0.98-0.26 0.41-0.63 0.64-0.38 0.23-0.86 0.23-0.48 0-0.86-0.23-0.37-0.23-0.63-0.64-0.27-0.41-0.4-0.98-0.13-0.58-0.13-1.25 0-0.68 0.12-1.25 0.13-0.57 0.39-0.98 0.26-0.41 0.64-0.64 0.38-0.23 0.87-0.23 0.48 0 0.86 0.23 0.37 0.23 0.63 0.64 0.26 0.41 0.39 0.98 0.13 0.57 0.13 1.25zm-0.75 0q0-0.54-0.08-0.99-0.09-0.46-0.25-0.78-0.16-0.33-0.39-0.52-0.24-0.18-0.54-0.18-0.31 0-0.55 0.18-0.23 0.19-0.39 0.52-0.16 0.32-0.25 0.78-0.08 0.45-0.08 0.99 0 0.54 0.08 0.98 0.09 0.44 0.25 0.78 0.16 0.33 0.39 0.51 0.24 0.18 0.55 0.18 0.3 0 0.54-0.18 0.23-0.18 0.39-0.51 0.16-0.34 0.25-0.78 0.08-0.44 0.08-0.98z"/>
			<path id="&lt;Compound Path&gt;" class="s2" d="m208.3 52.11l-1.88-4.69h-0.03v4.69h-0.71v-5.9h0.93l1.87 4.72h0.02v-4.72h0.68v5.9z"/>
			<path id="&lt;Compound Path&gt;" class="s2" d="m211.6 52.11v-5.9h2.53v0.65h-1.82v1.89h1.7v0.61h-1.7v2.1h1.89v0.65z"/>
			<path id="&lt;Compound Path&gt;" class="s2" d="m217.21 52.21q-0.45 0-0.84-0.19-0.4-0.19-0.67-0.55l0.44-0.49q0.23 0.3 0.5 0.45 0.28 0.14 0.56 0.14 0.37 0 0.62-0.26 0.25-0.26 0.25-0.74 0-0.23-0.08-0.41-0.08-0.17-0.21-0.3-0.13-0.14-0.3-0.24-0.17-0.11-0.35-0.21-0.23-0.12-0.45-0.25-0.22-0.13-0.39-0.33-0.18-0.19-0.29-0.45-0.11-0.27-0.11-0.64 0-0.41 0.13-0.72 0.13-0.31 0.35-0.52 0.21-0.2 0.49-0.3 0.28-0.1 0.58-0.1 0.39 0 0.73 0.14 0.34 0.14 0.58 0.49l-0.43 0.48q-0.2-0.26-0.41-0.36-0.22-0.11-0.46-0.11-0.32 0-0.6 0.23-0.27 0.24-0.27 0.76 0 0.44 0.26 0.69 0.25 0.25 0.63 0.42 0.23 0.12 0.46 0.26 0.23 0.15 0.42 0.34 0.18 0.2 0.29 0.47 0.11 0.27 0.11 0.63 0 0.39-0.12 0.7-0.12 0.31-0.33 0.53-0.21 0.22-0.49 0.33-0.28 0.11-0.6 0.11z"/>
			<path id="&lt;Compound Path&gt;" class="s2" d="m172.92 64.63q-0.33 0.48-1.05 0.48-0.54 0-0.87-0.28-0.33-0.28-0.45-0.79l0.64-0.26q0.07 0.32 0.24 0.51 0.17 0.18 0.43 0.18 0.37 0 0.52-0.3 0.15-0.29 0.15-0.9v-4.19h0.71v4.25q0 0.83-0.32 1.3z"/>
			<path id="&lt;Compound Path&gt;" class="s2" d="m178.93 63.77q-0.09 0.4-0.29 0.7-0.21 0.29-0.54 0.47-0.34 0.17-0.83 0.17-0.5 0-0.83-0.17-0.33-0.18-0.54-0.47-0.2-0.3-0.29-0.7-0.08-0.41-0.08-0.86v-3.83h0.73v3.76q0 0.32 0.04 0.62 0.04 0.29 0.16 0.52 0.11 0.22 0.31 0.35 0.21 0.14 0.52 0.14 0.31 0 0.51-0.14 0.19-0.13 0.31-0.35 0.12-0.23 0.16-0.52 0.04-0.3 0.04-0.62v-3.76h0.71v3.83q0 0.45-0.09 0.86z"/>
			<path id="&lt;Compound Path&gt;" fill-rule="evenodd" class="s2" d="m183.83 64.96l-1.09-2.67h-0.64v2.67h-0.71v-5.89h1.48q0.3 0 0.59 0.08 0.29 0.08 0.51 0.27 0.23 0.18 0.36 0.49 0.13 0.31 0.13 0.74 0 0.37-0.09 0.64-0.1 0.26-0.25 0.45-0.15 0.18-0.34 0.29-0.18 0.1-0.36 0.15l1.18 2.78zm-0.07-4.27q0-0.29-0.09-0.49-0.08-0.19-0.22-0.3-0.13-0.11-0.31-0.16-0.18-0.05-0.36-0.05h-0.68v2.01h0.7q0.44 0 0.7-0.25 0.26-0.26 0.26-0.76z"/>
			<path id="&lt;Compound Path&gt;" class="s2" d="m186.57 64.96v-5.89h0.71v5.89zm0.63-6.53h-0.6l0.97-1.55h0.77z"/>
			<path id="&lt;Compound Path&gt;" fill-rule="evenodd" class="s2" d="m193.27 62.03q0 1.43-0.6 2.18-0.6 0.75-1.63 0.75h-1.33v-5.89h1.34q1.03 0 1.62 0.76 0.6 0.76 0.6 2.2zm-0.73-0.01q0-0.61-0.12-1.04-0.12-0.43-0.32-0.72-0.21-0.28-0.49-0.41-0.28-0.14-0.59-0.14h-0.6v4.61h0.6q0.31 0 0.59-0.14 0.28-0.13 0.49-0.41 0.2-0.29 0.32-0.72 0.12-0.43 0.12-1.03z"/>
			<path id="&lt;Compound Path&gt;" class="s2" d="m195.38 64.96v-5.89h0.71v5.89z"/>
			<path id="&lt;Compound Path&gt;" class="s2" d="m200.3 65.11q-0.51 0-0.9-0.24-0.39-0.24-0.66-0.66-0.26-0.41-0.4-0.98-0.13-0.57-0.13-1.21 0-0.65 0.14-1.22 0.14-0.57 0.4-0.98 0.27-0.42 0.66-0.66 0.38-0.23 0.89-0.23 0.42 0 0.81 0.18 0.38 0.18 0.65 0.59l-0.47 0.47q-0.21-0.33-0.46-0.46-0.24-0.14-0.51-0.14-0.35 0-0.6 0.19-0.25 0.19-0.43 0.52-0.17 0.32-0.26 0.77-0.08 0.45-0.08 0.97 0 0.52 0.09 0.96 0.09 0.45 0.26 0.78 0.17 0.33 0.43 0.52 0.26 0.19 0.6 0.19 0.29 0 0.54-0.18 0.26-0.17 0.44-0.51l0.46 0.46q-0.52 0.87-1.47 0.87z"/>
			<path id="&lt;Compound Path&gt;" fill-rule="evenodd" class="s2" d="m205.95 64.96l-0.34-1.38h-1.74l-0.34 1.38h-0.72l1.48-5.89h0.95l1.44 5.89zm-1.19-5.17h-0.03l-0.75 3.19h1.52z"/>
			<path id="&lt;Compound Path&gt;" class="s2" d="m209.34 65.07q-0.45 0-0.85-0.2-0.39-0.19-0.66-0.54l0.44-0.49q0.22 0.3 0.5 0.44 0.28 0.14 0.56 0.14 0.36 0.01 0.61-0.25 0.25-0.26 0.25-0.74 0.01-0.24-0.08-0.41-0.08-0.17-0.2-0.31-0.13-0.13-0.3-0.24-0.18-0.11-0.36-0.2-0.22-0.12-0.44-0.25-0.22-0.14-0.4-0.33-0.18-0.19-0.28-0.46-0.11-0.26-0.11-0.64 0-0.4 0.13-0.72 0.13-0.31 0.34-0.51 0.22-0.21 0.49-0.31 0.28-0.1 0.58-0.1 0.4 0 0.74 0.14 0.33 0.14 0.58 0.49l-0.44 0.49q-0.19-0.26-0.41-0.37-0.21-0.11-0.46-0.11-0.32 0-0.59 0.24-0.27 0.24-0.27 0.76 0 0.44 0.25 0.69 0.26 0.24 0.63 0.41 0.24 0.12 0.47 0.27 0.23 0.14 0.41 0.34 0.19 0.2 0.3 0.46 0.11 0.27 0.11 0.64 0 0.38-0.12 0.69-0.13 0.31-0.33 0.53-0.21 0.22-0.49 0.34-0.28 0.11-0.6 0.11z"/>
			<path id="&lt;Compound Path&gt;" class="s2" d="m215.64 64.96v-5.89h0.7v5.89z"/>
			<path id="&lt;Compound Path&gt;" class="s2" d="m221.39 64.96l-1.88-4.68h-0.03v4.68h-0.7v-5.89h0.92l1.87 4.71h0.02v-4.71h0.68v5.89z"/>
			<path id="&lt;Compound Path&gt;" class="s2" d="m225.72 59.69v5.27h-0.71v-5.27h-1.14v-0.62h2.98v0.62z"/>
			<path id="&lt;Compound Path&gt;" class="s2" d="m228.47 64.96v-5.89h2.53v0.64h-1.82v1.9h1.7v0.61h-1.7v2.1h1.89v0.64z"/>
			<path id="&lt;Compound Path&gt;" class="s2" d="m235.81 64.97q-0.36 0.14-0.84 0.14-0.52 0-0.92-0.22-0.4-0.23-0.68-0.63-0.28-0.41-0.43-0.98-0.14-0.58-0.14-1.27 0-0.65 0.13-1.21 0.14-0.57 0.41-0.98 0.26-0.42 0.66-0.66 0.39-0.23 0.89-0.23 0.45 0 0.84 0.17 0.38 0.18 0.66 0.6l-0.49 0.48q-0.21-0.33-0.47-0.47-0.25-0.14-0.52-0.14-0.33 0-0.59 0.19-0.26 0.19-0.43 0.52-0.17 0.32-0.26 0.77-0.08 0.44-0.08 0.96 0 0.55 0.09 1 0.1 0.45 0.28 0.78 0.18 0.32 0.45 0.5 0.26 0.18 0.6 0.18 0.47 0 0.75-0.23v-1.88h-0.84v-0.65h1.55v2.87q-0.27 0.24-0.62 0.39z"/>
			<path id="&lt;Compound Path&gt;" fill-rule="evenodd" class="s2" d="m241.15 64.96l-1.09-2.67h-0.64v2.67h-0.71v-5.89h1.49q0.29 0 0.58 0.08 0.29 0.08 0.51 0.27 0.23 0.18 0.36 0.49 0.14 0.31 0.14 0.74 0 0.37-0.1 0.64-0.1 0.26-0.25 0.45-0.15 0.18-0.33 0.29-0.19 0.1-0.36 0.15l1.18 2.78zm-0.08-4.27q0-0.29-0.09-0.49-0.08-0.19-0.22-0.3-0.13-0.11-0.31-0.16-0.18-0.05-0.36-0.05h-0.68v2.01h0.7q0.44 0 0.7-0.25 0.26-0.26 0.26-0.76z"/>
			<path id="&lt;Compound Path&gt;" fill-rule="evenodd" class="s2" d="m246.23 64.96l-0.34-1.38h-1.74l-0.34 1.38h-0.72l1.48-5.89h0.94l1.45 5.89zm-1.19-5.17h-0.03l-0.75 3.19h1.52z"/>
			<path id="&lt;Compound Path&gt;" class="s2" d="m248.64 64.96v-5.88h0.71v5.24h1.68v0.64z"/>
			<path id="&lt;Compound Path&gt;" class="s2" d="m252.71 64.96v-5.89h2.53v0.64h-1.82v1.9h1.7v0.61h-1.7v2.1h1.9v0.64z"/>
			<path id="&lt;Compound Path&gt;" class="s2" d="m258.33 65.07q-0.45 0-0.85-0.2-0.4-0.19-0.67-0.54l0.44-0.49q0.23 0.3 0.51 0.44 0.28 0.14 0.55 0.14 0.37 0.01 0.62-0.25 0.25-0.26 0.25-0.74 0-0.24-0.08-0.41-0.08-0.17-0.21-0.31-0.13-0.13-0.3-0.24-0.17-0.11-0.35-0.2-0.23-0.12-0.44-0.25-0.22-0.14-0.4-0.33-0.18-0.19-0.28-0.46-0.11-0.26-0.11-0.64 0-0.4 0.13-0.72 0.12-0.31 0.34-0.51 0.21-0.21 0.49-0.31 0.28-0.1 0.58-0.1 0.4 0 0.73 0.14 0.34 0.14 0.59 0.49l-0.44 0.49q-0.19-0.26-0.41-0.37-0.21-0.11-0.46-0.11-0.32 0-0.59 0.24-0.28 0.24-0.28 0.76 0 0.44 0.26 0.69 0.26 0.24 0.63 0.41 0.24 0.12 0.47 0.27 0.23 0.14 0.41 0.34 0.18 0.2 0.3 0.46 0.11 0.27 0.11 0.64 0 0.38-0.13 0.69-0.12 0.31-0.33 0.53-0.21 0.22-0.48 0.34-0.28 0.11-0.6 0.11z"/>
		</g>
	</g>
</svg>