<svg version="1.2" xmlns="http://www.w3.org/2000/svg" viewBox="0 0 255 256" width="255" height="256">
	<style>
		.s0 { fill: #7e2e31 } 
	</style>
	<path id="&lt;Compound Path&gt;" fill-rule="evenodd" class="s0" d="m0.74 255.3v-254.62h253.93v254.62zm224.33-13.69l19.56 0.45-16.74-42.95c-5.73 1.49-6.85 16.97-6.92 21.48-0.11 7.31 0.91 14.42 4.1 21.02zm-67.27-148.34c8.66 21.71 23.74 41.19 30.97 63.56 8.6 26.6 8.62 58.03 14.06 85.21h15.08c-11.94-17.3 4.55-43.15 2.66-57.09-0.37-2.75-15.3-49.29-16.89-52.8-6.77-14.9-33.72-27.5-45.88-38.88zm6.65 39.68v51.26c0 2.82 13.09 55.57 14.8 57.83l11.91 0.02-11.66-79.36zm0.05 109.11c6.06 0.26 6.98 1.66 6.66-4.91-0.88-17.77-11.59-40.15-13.34-59.61-2.55-28.55 9.76-64.21-16.72-84.27 5.25 26.18-9.38 56.02-6.46 80.69 2.81 23.72 26.07 44.34 29.86 68.1zm-26.76-0.01l20.03-0.01-11.69-23.05c-3.92 0.03-10.24 21.27-8.34 23.06zm-20.06-0.01l13.17-0.15c-1.89-11.23 7.83-23.42 8.63-32.56 0.72-8.23-10.05-17.06-8.47-26.76l-9.15 25.61zm-46.78 0l36.77 0.05c-5.21-50.07 24.92-95.35 20-145.5l-22.66 42.01c2.56 39.07-10.84 72.68-34.11 103.44zm-50.12 0c7.07 0 6.08 0 15.06 0 4.28-1.69 30.92-30.24 36.19-35.22 4.64-4.4 13.28-6.1 17.03-11.27 6.93-9.55 8.94-34.2 8.54-46.07zm26.73 0c20.72 0 24.27-11.78 30.03-26.42zm13.36-66.07c-1.97-1.84-45.36 27.95-46.75 30.25 0 10.63 0.01 9.4 0.01 22.63 5.45-3.47 49.33-50.46 46.74-52.88zm153.73-33.1c4.1 23.56 13.58 51.52 30 69.44 0-43.28-2.36-48.05-30-69.44zm-200.48 52.89c6.66-3.15 33.96-22.54 38.99-25.85 6.38-4.19 14.79-4.21 20.95-9.03 13.75-10.75 39.6-55.87 43.58-74.21l-23.31 24.83c-10.74 10.79-29.11 16.71-38.57 27.96-9.17 10.89-8.36 23.75-14.8 31.65-7.81 9.59-26.84 6.28-26.84 24.65zm0-19.84c21.26-2.7 27.82-17.08 30.02-36.35l-29.7 10.24zm180.42-66.16c10.08 10.21 34.52 37.25 50.08 47.38 0-10.92 0-9.92 0-18.31-2.33-2.7-36.88-30.79-39.07-31.69-2.61-1.08-12.01-3.07-11.01 2.62zm-180.42 29.79c38.91-10.79 74.9-28.22 96.87-62.79l-96.87 41.77zm203.8-36.34c2.8 6.8 18.27 21.77 26.7 23.11v-21.5zm-203.81-0.03c2.84 3.02 58.82-20.58 63.46-29.72-21.95-2.54-41.71 8.82-63.32 10.03zm133.65-39.65c-5.52 5.14 26.84 29.8 32.74 32.05 23.05 8.78 40.99 0.73 64.15 0.99 0-5.84-0.04-6.93-0.04-12.28-3.3-9.44-82.52-14.25-96.85-20.76zm-133.65 13.22c2.2 2.17 26.9-6.12 32.33-8 3.2-1.12 9.28-2.3 11.06-5.19l-43.39-13.26zm0.45-63.22l-0.13 22.91c33.57 12.12 90.83 42.8 104.11 12.92 3.27-7.35 0.84-33.99-9.22-35.83zm179.95 46.64l50.12 6.66c0-35.21-36.62-29.59-50.12-6.66zm40.36-46.64h-98.83c-6.85 3.32-0.61 29.71 2.43 32.7 1.98 1.95 33.87 10.36 37.78 10.25 16.39-0.45 46.41-31.71 58.62-42.95z"/>
</svg>