<svg version="1.2" xmlns="http://www.w3.org/2000/svg" viewBox="0 0 255 255" width="255" height="255">
	<style>
		.s0 { fill: #4f542f } 
	</style>
	<path id="&lt;Compound Path&gt;" fill-rule="evenodd" class="s0" d="m254.01 0.49v254.49h-253.79v-254.49zm-180.42 11.8c-22.37 0-39.81 0-53.54 0l23.61 57.61c6.85-6.44 25.82-44.7 29.93-57.61zm23.53 0c-9.29 0-7.65 0-15.45 0-6.26 16.74-2.42 26.58 5.41 37.75l5.09-12.36c2.71-6.56 4.29-13.51 4.68-20.58zm-3.08 57.6c1.54-6.49 19.71-27.24 24.67-57.6-7.58 0-5.2 0-12.09 0-2.24 6.51-10.28 29.52-11.51 35.87-0.67 3.42-2.16 6.94-1.07 21.73zm23.02 42.95c-2.33-29.09 13.57-72.3 16.73-100.55-4.73 0-4.04 0-8.16 0-5.87 23.77-16.51 42.91-30.52 65.9zm16.73 26.46c16.67-0.88 14.94-18.36 20.56-27.58 17.33-28.47 15.1-78.19-6.85-99.62l-9.33 47.18c-2.91 14.75-4.38 29.75-4.38 44.78zm42.92-127.19c-8.79 16.03 6.01 59.84 15.52 67.63 7.28-0.07 14.13-60.43 11.75-67.63-10.19 0-16.82 0-27.27 0zm64.07 0.52l-26.67-0.52-3.51 31.31c6.09 4.1 32.4-29.16 30.18-30.79zm-110.33 229.13c-6.94-21.99-42.15-18.01-61.41-26.81-51.31-23.45-15.08-121.45-40.48-164.85l-14.99-26.48v90.67c0 6.91 16.28 34.92 28.57 81.01 4.05 15.17 1.17 30.94 1.48 46.46zm46.71-76.04c1.95-14.53 19.64-18.04 26.34-28.49 5-7.8 6.2-19.87 10.92-28.86 13.14-24.99 26.2-33.77 26.2-74.83-40.54 21.25-33.69 63.96-48.34 95.88-6.24 13.59-31.63 24.3-15.12 36.3zm-100.88-60.21c8.36-8.38 10.8-54.04-5.25-68.69-17.18 22.65-27.62 53.03-24.2 81.48 5.71-5.31 25.62-8.97 29.45-12.79zm164.37 48.66v-74.36l-24.95 43.05-8.44 46.15zm-151.71-65.12c-3.81 13.38-10.71 51.98-7.87 64.43 3.53 15.55 23.19 24.89 30.72 38.99l15.29 26.13c-3.81-25.09-2.15-59.08-8.07-82.85-3.37-13.52-30.07-46.7-30.07-46.7zm98.26 0.69l-22.93 25.19c-4.42 7.54-3.24 17.15-8.93 24.2-8.45 10.5-17.99 8.32-13.2 33.15 18.05-27.9 52.49-44.67 45.06-82.54zm-110.19 26.45c-42.11-3.32-32.57 45.77-1.7 56.22 10.68 1.19-0.73-13.11-1.7-21.44-1.37-11.75 0.41-23.5 3.4-34.78zm-63.44 26.41v46.28l24.04 11.47zm177.01 99.17c-0.38-31.36 13.28-60.74 13.3-92.55-12.54 2.51-31.73 31.15-33.36 41.57-1.99 12.77 7.6 35.76 3.33 50.98zm-23.41-79.31c-3.95 1.32-11.73 6.4-13.7 8.59-3.92 4.35-11.25 9.97-12.05 19.96-0.42 5.25 4.09 49.99 7.78 50.95l18-0.19c1.55-27.28-6.74-52.41-0.03-79.31zm-53.43 52.84c-5.17-35.86-40.52-30.74-63.4-49.56 1.78 36.62 31.59 46 63.4 49.56zm126.88-47.22l-14.16 8.77c-12.79 7.91-21.91 20.49-25.39 35.02l-7.17 29.85h46.72zm-227.05 27.41v46.27l23.39 0.02c2.54-21.36-1.78-38.18-23.39-46.29z"/>
</svg>